<?xml version="1.0" encoding="UTF-8"?>
<svg id="SVGDoc" width="62" height="62" xmlns="http://www.w3.org/2000/svg" version="1.1" xmlns:xlink="http://www.w3.org/1999/xlink" xmlns:avocode="https://avocode.com/" viewBox="0 0 62 62"><defs><linearGradient id="LinearGradient1140" gradientUnits="userSpaceOnUse" x1="58.50416238975856" y1="3.420050949579874" x2="3.3541591025623134" y2="58.57005094957978"><stop stop-opacity="1" stop-color="#ff334b" offset="0"></stop><stop stop-opacity="1" stop-color="#c600f9" offset="0.47"></stop><stop stop-opacity="1" stop-color="#3369ff" offset="1"></stop></linearGradient><linearGradient id="LinearGradient1151" gradientUnits="userSpaceOnUse" x1="58.50416238975856" y1="3.420050949579874" x2="3.3541591025623134" y2="58.57005094957978"><stop stop-opacity="1" stop-color="#ff334b" offset="0"></stop><stop stop-opacity="1" stop-color="#c600f9" offset="0.47"></stop><stop stop-opacity="1" stop-color="#3369ff" offset="1"></stop></linearGradient></defs><desc>Generated with Avocode.</desc><g><g><title>Vector</title><path d="M36.28184,14.06207c3.71834,0.97955 5.93295,4.75067 4.93662,8.40644l-3.01402,11.05908c-0.99636,3.65586 -4.83211,5.83303 -8.55045,4.85348l-1.08406,-0.28558c-3.71838,-0.97956 -5.93292,-4.75061 -4.93656,-8.40647l3.01402,-11.05908c0.99634,-3.65577 4.83201,-5.83302 8.55039,-4.85346zM39.59168,22.03989c0.54333,-1.99358 -0.17173,-4.03223 -1.66431,-5.29744l-0.61618,2.2609c-0.12038,0.4417 -0.58222,0.70373 -1.03134,0.58542c-0.44926,-0.11835 -0.71583,-0.57227 -0.59545,-1.01397l0.74223,-2.72342c-0.18773,-0.07305 -2.06434,-0.56742 -2.26408,-0.59645l-0.74223,2.72342c-0.12038,0.4417 -0.58214,0.70375 -1.03134,0.58542c-0.44918,-0.11833 -0.71582,-0.57227 -0.59544,-1.01397l0.61618,-2.2609c-1.93608,0.36197 -3.59217,1.77611 -4.13548,3.76963l-0.56572,2.07574l2.9485,0.77675c0.44925,0.11835 0.71582,0.57228 0.59544,1.01397c-0.12039,0.44172 -0.58208,0.70374 -1.03133,0.58539l-2.9485,-0.77675l-0.60667,2.22601l2.9485,0.77675c0.44925,0.11835 0.71584,0.57222 0.59543,1.01401c-0.12038,0.44169 -0.58207,0.70371 -1.03132,0.58536l-2.9485,-0.77675l-0.6067,2.22611l2.9485,0.77675c0.44925,0.11835 0.71581,0.57232 0.59543,1.01401c-0.12038,0.44169 -0.58207,0.70371 -1.03132,0.58536l-2.94119,-0.77482c-0.58082,2.68761 1.08076,5.39049 3.81109,6.10976l1.08406,0.28558c2.73038,0.71928 5.54392,-0.80467 6.40771,-3.41774l-2.94115,-0.77481c-0.4493,-0.11836 -0.71588,-0.57223 -0.59551,-1.01392c0.12038,-0.44169 0.58209,-0.7038 1.03139,-0.58544l2.94841,0.77672l0.6067,-2.22611l-2.94841,-0.77672c-0.4493,-0.11836 -0.71588,-0.57223 -0.59551,-1.01392c0.1204,-0.44179 0.58209,-0.7038 1.03139,-0.58544l2.94841,0.77672l0.60667,-2.22601l-2.94841,-0.77672c-0.4493,-0.11836 -0.71588,-0.57223 -0.5955,-1.01395c0.12038,-0.44169 0.58208,-0.70377 1.03138,-0.5854l2.94841,0.77672z" fill="#ffffff" fill-opacity="1"></path></g><g><title>Group</title><g><title>Vector</title><path d="M36.28184,14.06207c3.71834,0.97955 5.93295,4.75067 4.93662,8.40644l-3.01402,11.05908c-0.99636,3.65586 -4.83211,5.83303 -8.55045,4.85348l-1.08406,-0.28558c-3.71838,-0.97956 -5.93292,-4.75061 -4.93656,-8.40647l3.01402,-11.05908c0.99634,-3.65577 4.83201,-5.83302 8.55039,-4.85346zM39.59168,22.03989c0.54333,-1.99358 -0.17173,-4.03223 -1.66431,-5.29744l-0.61618,2.2609c-0.12038,0.4417 -0.58222,0.70373 -1.03134,0.58542c-0.44926,-0.11835 -0.71583,-0.57227 -0.59545,-1.01397l0.74223,-2.72342c-0.18773,-0.07305 -2.06434,-0.56742 -2.26408,-0.59645l-0.74223,2.72342c-0.12038,0.4417 -0.58214,0.70375 -1.03134,0.58542c-0.44918,-0.11833 -0.71582,-0.57227 -0.59544,-1.01397l0.61618,-2.2609c-1.93608,0.36197 -3.59217,1.77611 -4.13548,3.76963l-0.56572,2.07574l2.9485,0.77675c0.44925,0.11835 0.71582,0.57228 0.59544,1.01397c-0.12039,0.44172 -0.58208,0.70374 -1.03133,0.58539l-2.9485,-0.77675l-0.60667,2.22601l2.9485,0.77675c0.44925,0.11835 0.71584,0.57222 0.59543,1.01401c-0.12038,0.44169 -0.58207,0.70371 -1.03132,0.58536l-2.9485,-0.77675l-0.6067,2.22611l2.9485,0.77675c0.44925,0.11835 0.71581,0.57232 0.59543,1.01401c-0.12038,0.44169 -0.58207,0.70371 -1.03132,0.58536l-2.94119,-0.77482c-0.58082,2.68761 1.08076,5.39049 3.81109,6.10976l1.08406,0.28558c2.73038,0.71928 5.54392,-0.80467 6.40771,-3.41774l-2.94115,-0.77481c-0.4493,-0.11836 -0.71588,-0.57223 -0.59551,-1.01392c0.12038,-0.44169 0.58209,-0.7038 1.03139,-0.58544l2.94841,0.77672l0.6067,-2.22611l-2.94841,-0.77672c-0.4493,-0.11836 -0.71588,-0.57223 -0.59551,-1.01392c0.1204,-0.44179 0.58209,-0.7038 1.03139,-0.58544l2.94841,0.77672l0.60667,-2.22601l-2.94841,-0.77672c-0.4493,-0.11836 -0.71588,-0.57223 -0.5955,-1.01395c0.12038,-0.44169 0.58208,-0.70377 1.03138,-0.5854l2.94841,0.77672z" fill="#ffffff" fill-opacity="1"></path></g></g><g><title>Group</title><g><title>Group</title><g><title>Vector</title><path d="M36.28184,14.06207c3.71834,0.97955 5.93295,4.75067 4.93662,8.40644l-3.01402,11.05908c-0.99636,3.65586 -4.83211,5.83303 -8.55045,4.85348l-1.08406,-0.28558c-3.71838,-0.97956 -5.93292,-4.75061 -4.93656,-8.40647l3.01402,-11.05908c0.99634,-3.65577 4.83201,-5.83302 8.55039,-4.85346zM39.59168,22.03989c0.54333,-1.99358 -0.17173,-4.03223 -1.66431,-5.29744l-0.61618,2.2609c-0.12038,0.4417 -0.58222,0.70373 -1.03134,0.58542c-0.44926,-0.11835 -0.71583,-0.57227 -0.59545,-1.01397l0.74223,-2.72342c-0.18773,-0.07305 -2.06434,-0.56742 -2.26408,-0.59645l-0.74223,2.72342c-0.12038,0.4417 -0.58214,0.70375 -1.03134,0.58542c-0.44918,-0.11833 -0.71582,-0.57227 -0.59544,-1.01397l0.61618,-2.2609c-1.93608,0.36197 -3.59217,1.77611 -4.13548,3.76963l-0.56572,2.07574l2.9485,0.77675c0.44925,0.11835 0.71582,0.57228 0.59544,1.01397c-0.12039,0.44172 -0.58208,0.70374 -1.03133,0.58539l-2.9485,-0.77675l-0.60667,2.22601l2.9485,0.77675c0.44925,0.11835 0.71584,0.57222 0.59543,1.01401c-0.12038,0.44169 -0.58207,0.70371 -1.03132,0.58536l-2.9485,-0.77675l-0.6067,2.22611l2.9485,0.77675c0.44925,0.11835 0.71581,0.57232 0.59543,1.01401c-0.12038,0.44169 -0.58207,0.70371 -1.03132,0.58536l-2.94119,-0.77482c-0.58082,2.68761 1.08076,5.39049 3.81109,6.10976l1.08406,0.28558c2.73038,0.71928 5.54392,-0.80467 6.40771,-3.41774l-2.94115,-0.77481c-0.4493,-0.11836 -0.71588,-0.57223 -0.59551,-1.01392c0.12038,-0.44169 0.58209,-0.7038 1.03139,-0.58544l2.94841,0.77672l0.6067,-2.22611l-2.94841,-0.77672c-0.4493,-0.11836 -0.71588,-0.57223 -0.59551,-1.01392c0.1204,-0.44179 0.58209,-0.7038 1.03139,-0.58544l2.94841,0.77672l0.60667,-2.22601l-2.94841,-0.77672c-0.4493,-0.11836 -0.71588,-0.57223 -0.5955,-1.01395c0.12038,-0.44169 0.58208,-0.70377 1.03138,-0.5854l2.94841,0.77672z" fill="#ffffff" fill-opacity="1"></path></g></g></g><g><title>Vector</title><path d="M43.20789,28.06206c-0.44918,-0.11833 -0.91102,0.14371 -1.03139,0.5854l-1.36179,4.99668c-1.44062,5.28594 -6.98672,8.4341 -12.36329,7.01771c-5.37653,-1.41638 -8.57849,-6.86921 -7.13788,-12.15512l1.36179,-4.99668c0.12038,-0.44169 -0.14632,-0.89565 -0.59544,-1.01397c-0.44926,-0.11835 -0.91096,0.14372 -1.03133,0.58542l-1.36179,4.99668c-1.60769,5.89896 1.74017,11.97541 7.52331,13.93983l-1.13133,4.1511v0l-4.20731,-1.10836c-0.44912,-0.11831 -0.91097,0.14376 -1.03135,0.58545c-0.12038,0.44169 0.14625,0.89568 0.59543,1.01401l10.04126,2.64525c0.44908,0.1183 0.91093,-0.14377 1.03131,-0.58546c0.12038,-0.44169 -0.14622,-0.89567 -0.59539,-1.014l-4.20726,-1.10835v0l1.13133,-4.1511c6.00739,1.14164 11.99696,-2.47497 13.60465,-8.37393l1.36179,-4.99668c0.12046,-0.4416 -0.14625,-0.89557 -0.59532,-1.01387z" fill="#ffffff" fill-opacity="1"></path></g><g><title>Group</title><g><title>Vector</title><path d="M43.20789,28.06206c-0.44918,-0.11833 -0.91102,0.14371 -1.03139,0.5854l-1.36179,4.99668c-1.44062,5.28594 -6.98672,8.4341 -12.36329,7.01771c-5.37653,-1.41638 -8.57849,-6.86921 -7.13788,-12.15512l1.36179,-4.99668c0.12038,-0.44169 -0.14632,-0.89565 -0.59544,-1.01397c-0.44926,-0.11835 -0.91096,0.14372 -1.03133,0.58542l-1.36179,4.99668c-1.60769,5.89896 1.74017,11.97541 7.52331,13.93983l-1.13133,4.1511v0l-4.20731,-1.10836c-0.44912,-0.11831 -0.91097,0.14376 -1.03135,0.58545c-0.12038,0.44169 0.14625,0.89568 0.59543,1.01401l10.04126,2.64525c0.44908,0.1183 0.91093,-0.14377 1.03131,-0.58546c0.12038,-0.44169 -0.14622,-0.89567 -0.59539,-1.014l-4.20726,-1.10835v0l1.13133,-4.1511c6.00739,1.14164 11.99696,-2.47497 13.60465,-8.37393l1.36179,-4.99668c0.12046,-0.4416 -0.14625,-0.89557 -0.59532,-1.01387z" fill="#ffffff" fill-opacity="1"></path></g></g><g><title>Group</title><g><title>Group</title><g><title>Vector</title><path d="M43.20789,28.06206c-0.44918,-0.11833 -0.91102,0.14371 -1.03139,0.5854l-1.36179,4.99668c-1.44062,5.28594 -6.98672,8.4341 -12.36329,7.01771c-5.37653,-1.41638 -8.57849,-6.86921 -7.13788,-12.15512l1.36179,-4.99668c0.12038,-0.44169 -0.14632,-0.89565 -0.59544,-1.01397c-0.44926,-0.11835 -0.91096,0.14372 -1.03133,0.58542l-1.36179,4.99668c-1.60769,5.89896 1.74017,11.97541 7.52331,13.93983l-1.13133,4.1511v0l-4.20731,-1.10836c-0.44912,-0.11831 -0.91097,0.14376 -1.03135,0.58545c-0.12038,0.44169 0.14625,0.89568 0.59543,1.01401l10.04126,2.64525c0.44908,0.1183 0.91093,-0.14377 1.03131,-0.58546c0.12038,-0.44169 -0.14622,-0.89567 -0.59539,-1.014l-4.20726,-1.10835v0l1.13133,-4.1511c6.00739,1.14164 11.99696,-2.47497 13.60465,-8.37393l1.36179,-4.99668c0.12046,-0.4416 -0.14625,-0.89557 -0.59532,-1.01387z" fill="#ffffff" fill-opacity="1"></path></g></g></g><g><title>Group 2</title><g><title>Group</title><g><title>Group</title><g><title>Vector</title><path d="M43.20789,28.06206c-0.44918,-0.11833 -0.91102,0.14371 -1.03139,0.5854l-1.36179,4.99668c-1.44062,5.28594 -6.98672,8.4341 -12.36329,7.01771c-5.37653,-1.41638 -8.57849,-6.86921 -7.13788,-12.15512l1.36179,-4.99668c0.12038,-0.44169 -0.14632,-0.89565 -0.59544,-1.01397c-0.44926,-0.11835 -0.91096,0.14372 -1.03133,0.58542l-1.36179,4.99668c-1.60769,5.89896 1.74017,11.97541 7.52331,13.93983l-1.13133,4.1511v0l-4.20731,-1.10836c-0.44912,-0.11831 -0.91097,0.14376 -1.03135,0.58545c-0.12038,0.44169 0.14625,0.89568 0.59543,1.01401l10.04126,2.64525c0.44908,0.1183 0.91093,-0.14377 1.03131,-0.58546c0.12038,-0.44169 -0.14622,-0.89567 -0.59539,-1.014l-4.20726,-1.10835v0l1.13133,-4.1511c6.00739,1.14164 11.99696,-2.47497 13.60465,-8.37393l1.36179,-4.99668c0.12046,-0.4416 -0.14625,-0.89557 -0.59532,-1.01387z" fill="#ffffff" fill-opacity="1"></path></g></g></g><g><title>Group</title><g><title>Group</title><g><title>Vector</title><path d="M36.28184,14.06207c3.71834,0.97955 5.93295,4.75067 4.93662,8.40644l-3.01402,11.05908c-0.99636,3.65586 -4.83211,5.83303 -8.55045,4.85348l-1.08406,-0.28558c-3.71838,-0.97956 -5.93292,-4.75061 -4.93656,-8.40647l3.01402,-11.05908c0.99634,-3.65577 4.83201,-5.83302 8.55039,-4.85346zM39.59168,22.03989c0.54333,-1.99358 -0.17173,-4.03223 -1.66431,-5.29744l-0.61618,2.2609c-0.12038,0.4417 -0.58222,0.70373 -1.03134,0.58542c-0.44926,-0.11835 -0.71583,-0.57227 -0.59545,-1.01397l0.74223,-2.72342c-0.18773,-0.07305 -2.06434,-0.56742 -2.26408,-0.59645l-0.74223,2.72342c-0.12038,0.4417 -0.58214,0.70375 -1.03134,0.58542c-0.44918,-0.11833 -0.71582,-0.57227 -0.59544,-1.01397l0.61618,-2.2609c-1.93608,0.36197 -3.59217,1.77611 -4.13548,3.76963l-0.56572,2.07574l2.9485,0.77675c0.44925,0.11835 0.71582,0.57228 0.59544,1.01397c-0.12039,0.44172 -0.58208,0.70374 -1.03133,0.58539l-2.9485,-0.77675l-0.60667,2.22601l2.9485,0.77675c0.44925,0.11835 0.71584,0.57222 0.59543,1.01401c-0.12038,0.44169 -0.58207,0.70371 -1.03132,0.58536l-2.9485,-0.77675l-0.6067,2.22611l2.9485,0.77675c0.44925,0.11835 0.71581,0.57232 0.59543,1.01401c-0.12038,0.44169 -0.58207,0.70371 -1.03132,0.58536l-2.94119,-0.77482c-0.58082,2.68761 1.08076,5.39049 3.81109,6.10976l1.08406,0.28558c2.73038,0.71928 5.54392,-0.80467 6.40771,-3.41774l-2.94115,-0.77481c-0.4493,-0.11836 -0.71588,-0.57223 -0.59551,-1.01392c0.12038,-0.44169 0.58209,-0.7038 1.03139,-0.58544l2.94841,0.77672l0.6067,-2.22611l-2.94841,-0.77672c-0.4493,-0.11836 -0.71588,-0.57223 -0.59551,-1.01392c0.1204,-0.44179 0.58209,-0.7038 1.03139,-0.58544l2.94841,0.77672l0.60667,-2.22601l-2.94841,-0.77672c-0.4493,-0.11836 -0.71588,-0.57223 -0.5955,-1.01395c0.12038,-0.44169 0.58208,-0.70377 1.03138,-0.5854l2.94841,0.77672z" fill="#ffffff" fill-opacity="1"></path></g></g></g></g><g opacity="0.25"><title>Rectangle</title><path d="M0,20c0,-11.04569 8.95431,-20 20,-20h15c11.0457,0 20,8.95431 20,20v15c0,11.0457 -8.9543,20 -20,20h-15c-11.04569,0 -20,-8.9543 -20,-20z" fill="#3369ff" fill-opacity="1"></path></g><g opacity="0.25"><title>Rectangle</title><path d="M7,27c0,-11.04569 8.95431,-20 20,-20h15c11.0457,0 20,8.95431 20,20v15c0,11.0457 -8.9543,20 -20,20h-15c-11.04569,0 -20,-8.9543 -20,-20z" fill="#ff334b" fill-opacity="1"></path></g><g transform="rotate(135 31 31)"><title>Rectangle</title><path d="M58.5743,38.5743c0,11.04568 -8.9543,20 -20,20h-15.1543c-11.0457,0 -20,-8.9543 -20,-20v-15.1543c0,-11.0457 8.9543,-20 20,-20h15.1543c11.04568,0 20,8.9543 20,20z" fill="url(#LinearGradient1140)"></path></g><g><title>Group 2</title><g transform="rotate(135 31 31)"><title>Rectangle</title><path d="M58.5743,38.5743c0,11.04568 -8.9543,20 -20,20h-15.1543c-11.0457,0 -20,-8.9543 -20,-20v-15.1543c0,-11.0457 8.9543,-20 20,-20h15.1543c11.04568,0 20,8.9543 20,20z" fill="url(#LinearGradient1151)"></path></g><g opacity="0.25"><title>Rectangle</title><path d="M7,27c0,-11.04569 8.95431,-20 20,-20h15c11.0457,0 20,8.95431 20,20v15c0,11.0457 -8.9543,20 -20,20h-15c-11.04569,0 -20,-8.9543 -20,-20z" fill="#ff334b" fill-opacity="1"></path></g><g opacity="0.25"><title>Rectangle</title><path d="M0,20c0,-11.04569 8.95431,-20 20,-20h15c11.0457,0 20,8.95431 20,20v15c0,11.0457 -8.9543,20 -20,20h-15c-11.04569,0 -20,-8.9543 -20,-20z" fill="#3369ff" fill-opacity="1"></path></g><g><title>Group 2</title><g><title>Group</title><g><title>Group</title><g><title>Vector</title><path d="M43.20789,28.06206c-0.44918,-0.11833 -0.91102,0.14371 -1.03139,0.5854l-1.36179,4.99668c-1.44062,5.28594 -6.98672,8.4341 -12.36329,7.01771c-5.37653,-1.41638 -8.57849,-6.86921 -7.13788,-12.15512l1.36179,-4.99668c0.12038,-0.44169 -0.14632,-0.89565 -0.59544,-1.01397c-0.44926,-0.11835 -0.91096,0.14372 -1.03133,0.58542l-1.36179,4.99668c-1.60769,5.89896 1.74017,11.97541 7.52331,13.93983l-1.13133,4.1511v0l-4.20731,-1.10836c-0.44912,-0.11831 -0.91097,0.14376 -1.03135,0.58545c-0.12038,0.44169 0.14625,0.89568 0.59543,1.01401l10.04126,2.64525c0.44908,0.1183 0.91093,-0.14377 1.03131,-0.58546c0.12038,-0.44169 -0.14622,-0.89567 -0.59539,-1.014l-4.20726,-1.10835v0l1.13133,-4.1511c6.00739,1.14164 11.99696,-2.47497 13.60465,-8.37393l1.36179,-4.99668c0.12046,-0.4416 -0.14625,-0.89557 -0.59532,-1.01387z" fill="#ffffff" fill-opacity="1"></path></g></g></g><g><title>Group</title><g><title>Group</title><g><title>Vector</title><path d="M36.28184,14.06207c3.71834,0.97955 5.93295,4.75067 4.93662,8.40644l-3.01402,11.05908c-0.99636,3.65586 -4.83211,5.83303 -8.55045,4.85348l-1.08406,-0.28558c-3.71838,-0.97956 -5.93292,-4.75061 -4.93656,-8.40647l3.01402,-11.05908c0.99634,-3.65577 4.83201,-5.83302 8.55039,-4.85346zM39.59168,22.03989c0.54333,-1.99358 -0.17173,-4.03223 -1.66431,-5.29744l-0.61618,2.2609c-0.12038,0.4417 -0.58222,0.70373 -1.03134,0.58542c-0.44926,-0.11835 -0.71583,-0.57227 -0.59545,-1.01397l0.74223,-2.72342c-0.18773,-0.07305 -2.06434,-0.56742 -2.26408,-0.59645l-0.74223,2.72342c-0.12038,0.4417 -0.58214,0.70375 -1.03134,0.58542c-0.44918,-0.11833 -0.71582,-0.57227 -0.59544,-1.01397l0.61618,-2.2609c-1.93608,0.36197 -3.59217,1.77611 -4.13548,3.76963l-0.56572,2.07574l2.9485,0.77675c0.44925,0.11835 0.71582,0.57228 0.59544,1.01397c-0.12039,0.44172 -0.58208,0.70374 -1.03133,0.58539l-2.9485,-0.77675l-0.60667,2.22601l2.9485,0.77675c0.44925,0.11835 0.71584,0.57222 0.59543,1.01401c-0.12038,0.44169 -0.58207,0.70371 -1.03132,0.58536l-2.9485,-0.77675l-0.6067,2.22611l2.9485,0.77675c0.44925,0.11835 0.71581,0.57232 0.59543,1.01401c-0.12038,0.44169 -0.58207,0.70371 -1.03132,0.58536l-2.94119,-0.77482c-0.58082,2.68761 1.08076,5.39049 3.81109,6.10976l1.08406,0.28558c2.73038,0.71928 5.54392,-0.80467 6.40771,-3.41774l-2.94115,-0.77481c-0.4493,-0.11836 -0.71588,-0.57223 -0.59551,-1.01392c0.12038,-0.44169 0.58209,-0.7038 1.03139,-0.58544l2.94841,0.77672l0.6067,-2.22611l-2.94841,-0.77672c-0.4493,-0.11836 -0.71588,-0.57223 -0.59551,-1.01392c0.1204,-0.44179 0.58209,-0.7038 1.03139,-0.58544l2.94841,0.77672l0.60667,-2.22601l-2.94841,-0.77672c-0.4493,-0.11836 -0.71588,-0.57223 -0.5955,-1.01395c0.12038,-0.44169 0.58208,-0.70377 1.03138,-0.5854l2.94841,0.77672z" fill="#ffffff" fill-opacity="1"></path></g></g></g></g></g></g></svg>