<?xml version="1.0" encoding="UTF-8"?>
<svg id="SVGDoc" width="68" height="27" xmlns="http://www.w3.org/2000/svg" version="1.1" xmlns:xlink="http://www.w3.org/1999/xlink" xmlns:avocode="https://avocode.com/" viewBox="0 0 68 27"><defs></defs><desc>Generated with Avocode.</desc><g><g><title>pcast</title><path d="M0,4.85976h3.45527l0.66876,1.42112c1.39325,-1.09603 2.77722,-1.64404 4.1519,-1.64404c1.80197,0 3.13017,0.66876 3.98467,2.00629c0.8731,1.33752 1.3097,3.24163 1.3097,5.71237c0,2.5636 -0.3994,4.4862 -1.1982,5.768c-0.7802,1.2633 -2.1456,1.8949 -4.09617,1.8949c-0.70592,0 -1.43041,-0.0836 -2.17348,-0.2508c-0.72449,-0.1672 -1.38396,-0.4087 -1.97842,-0.7245v7.3842h-4.12403zM6.9384,16.6188c0.76165,0 1.36539,-0.3065 1.81123,-0.9195c0.46442,-0.6316 0.69663,-1.7462 0.69663,-3.3438c0,-1.5976 -0.22292,-2.73081 -0.66876,-3.39957c-0.44584,-0.66876 -1.05887,-1.00315 -1.8391,-1.00315c-0.92883,0 -1.86696,0.27866 -2.81437,0.83596v7.10556c0.35296,0.223 0.78022,0.3994 1.28179,0.5295c0.52015,0.13 1.03101,0.195 1.53258,0.195zM22.1238,19.9905c-1.9877,0 -3.5296,-0.5666 -4.6256,-1.6998c-1.096,-1.1332 -1.6441,-3.093 -1.6441,-5.8795c0,-1.98771 0.2415,-3.54816 0.7245,-4.68134c0.483,-1.13318 1.1889,-1.93197 2.1178,-2.39639c0.9288,-0.46442 2.1084,-0.69663 3.5388,-0.69663c1.802,0 3.5389,0.23221 5.2108,0.69663v2.36853h-3.929c-0.8916,0 -1.5883,0.13004 -2.0898,0.39011c-0.5016,0.26007 -0.8732,0.72449 -1.1147,1.39325c-0.2229,0.66877 -0.3343,1.63474 -0.3343,2.89794c0,1.2447 0.1114,2.1921 0.3343,2.8423c0.2415,0.6316 0.6131,1.0681 1.1147,1.3096c0.5015,0.2229 1.2167,0.3344 2.1456,0.3344h4.0961v2.3407c-0.7059,0.2229 -1.5697,0.4087 -2.5914,0.5573c-1.0217,0.1486 -2.0063,0.2229 -2.9537,0.2229zM33.137,19.9905c-1.1517,0 -2.0806,-0.3344 -2.7865,-1.0031c-0.6873,-0.6874 -1.031,-1.6162 -1.031,-2.7866v-1.3375c0,-1.1889 0.4087,-2.1363 1.2261,-2.8422c0.8359,-0.7059 2.0713,-1.0589 3.706,-1.0589h3.8175v-1.031c0,-0.50157 -0.0836,-0.89168 -0.2508,-1.17033c-0.1671,-0.29723 -0.4829,-0.51086 -0.9474,-0.6409c-0.4644,-0.14861 -1.1517,-0.22292 -2.062,-0.22292h-4.4863v-2.39639c1.8391,-0.5573 3.8361,-0.83596 5.991,-0.83596c1.9692,0 3.4367,0.37154 4.4027,1.11461c0.9846,0.74307 1.4769,2.03415 1.4769,3.87324v10.17075h-3.2602l-0.6688,-1.5883c-0.2044,0.2043 -0.5666,0.4458 -1.0867,0.7245c-0.5202,0.2786 -1.1425,0.5201 -1.867,0.7245c-0.7059,0.2043 -1.4304,0.3065 -2.1735,0.3065zM35.2826,17.1204c0.4273,0 0.9567,-0.0929 1.5883,-0.2787c0.6316,-0.2043 1.031,-0.3529 1.1982,-0.4458v-3.4831l-2.5078,0.1672c-1.4119,0.1114 -2.1178,0.7244 -2.1178,1.8391v0.613c0,1.0589 0.6131,1.5883 1.8391,1.5883zM50.7144,19.9905c-1.0217,0 -2.0991,-0.0557 -3.2323,-0.1672c-1.1146,-0.13 -1.9691,-0.2972 -2.5636,-0.5016v-2.4242h6.6319c0.613,0 1.0496,-0.0836 1.3096,-0.2508c0.2601,-0.1672 0.3902,-0.4923 0.3902,-0.9753v-0.4737c0,-0.3901 -0.1301,-0.678 -0.3902,-0.8638c-0.2415,-0.2044 -0.678,-0.3065 -1.3096,-0.3065h-2.3407c-1.3932,0 -2.4985,-0.3158 -3.3159,-0.9474c-0.8174,-0.6502 -1.2261,-1.6905 -1.2261,-3.12093v-0.86382c0,-1.48614 0.4459,-2.58216 1.3375,-3.28808c0.9103,-0.72449 2.4707,-1.08673 4.6814,-1.08673c0.9102,0 1.9041,0.0743 2.9815,0.22292c1.0775,0.13003 1.8949,0.28794 2.4522,0.4737v2.42426h-6.2697c-0.5759,0 -0.9938,0.09289 -1.2539,0.27865c-0.2601,0.18577 -0.3901,0.51086 -0.3901,0.97528v0.44584c0,0.46442 0.1393,0.78023 0.418,0.94742c0.2786,0.14861 0.743,0.22289 1.3932,0.22289h2.3964c1.4861,0 2.5822,0.3437 3.2881,1.031c0.7245,0.6688 1.0867,1.6348 1.0867,2.898v1.3375c0,1.4676 -0.5016,2.5079 -1.5047,3.1209c-1.0031,0.5945 -2.5264,0.8917 -4.5699,0.8917zM65.0338,19.8233c-1.1703,0 -2.1084,-0.1672 -2.8144,-0.5016c-0.7059,-0.3343 -1.2167,-0.8916 -1.5325,-1.6719c-0.3158,-0.7802 -0.4552,-1.8298 -0.418,-3.1487l0.1393,-6.32539h-2.3406v-2.64719l2.4799,-0.66876l0.5573,-4.17976h3.2603v4.17976h3.511v3.31595h-3.511v6.29749c0,0.7431 0.13,1.2632 0.3901,1.5605c0.26,0.2972 0.6223,0.483 1.0867,0.5573l1.8948,0.1671v3.0652z" fill="#ffffff" fill-opacity="1"></path></g></g></svg>